# xmcd CD database file
#
# Track frame offsets:
#	150
#	17227
#	35415
#
# Disc length: 697 seconds
#
# Revision: 2
# Processed by: cddbd v1.5PL3 Copyright (c) Steve Scherf et al.
# Submitted via: CDex 1.50
#
DISCID=1c02b703
DTITLE=Lookin' For The Paradice - 光と闇のボーダーライン
DYEAR=1997
DGENRE=JPop
TTITLE0=光と闇のボーダーライン
TTITLE1=機械じかけのFake Town
TTITLE2=光と闇のボーダーライン（オリジナルカラオケ）
EXTD=YEAR: 1997
EXTT0=
EXTT1=
EXTT2=
PLAYORDER=
